<?xml version="1.0" encoding="utf-8"?>
<!-- Generator: Adobe Illustrator 23.1.0, SVG Export Plug-In . SVG Version: 6.00 Build 0)  -->
<svg version="1.1" id="Layer_1" xmlns="http://www.w3.org/2000/svg" xmlns:xlink="http://www.w3.org/1999/xlink" x="0px" y="0px"
	 viewBox="0 0 48 48" style="enable-background:new 0 0 48 48;" xml:space="preserve">
<style type="text/css">
	.st1{fill:#333333;}
</style>
<title>Instagram</title>
<g>
	<path class="st1" d="M14.55,0.06c-7.98,0-14.49,6.51-14.49,14.49v18.9c0,7.98,6.51,14.49,14.49,14.49h18.9
		c7.98,0,14.49-6.51,14.49-14.49v-18.9c0-7.98-6.51-14.49-14.49-14.49H14.55z M14.55,3.84h18.9c5.94,0,10.71,4.77,10.71,10.71v18.9
		c0,5.94-4.77,10.71-10.71,10.71h-18.9c-5.94,0-10.71-4.77-10.71-10.71v-18.9C3.84,8.61,8.61,3.84,14.55,3.84z M36.6,8.88
		c-1.39,0-2.52,1.13-2.52,2.52s1.13,2.52,2.52,2.52s2.52-1.13,2.52-2.52S37.99,8.88,36.6,8.88z M24,11.4
		c-6.94,0-12.6,5.66-12.6,12.6S17.06,36.6,24,36.6S36.6,30.94,36.6,24S30.94,11.4,24,11.4z M24,15.18c4.89,0,8.82,3.93,8.82,8.82
		s-3.93,8.82-8.82,8.82s-8.82-3.93-8.82-8.82S19.11,15.18,24,15.18z"/>
</g>
</svg>
