<?xml version="1.0" encoding="utf-8"?>
<!-- Generator: Adobe Illustrator 23.1.0, SVG Export Plug-In . SVG Version: 6.00 Build 0)  -->
<svg version="1.1" id="Layer_1" xmlns="http://www.w3.org/2000/svg" xmlns:xlink="http://www.w3.org/1999/xlink" x="0px" y="0px"
	 viewBox="0 0 48 48" style="enable-background:new 0 0 48 48;" xml:space="preserve">
<style type="text/css">
	.st1{fill:#333333;}
</style>
<title>Messenger</title>

<path class="st1" d="M24.06,0.29C11,0.29,0.28,10.37,0.28,22.89c0,6.41,2.9,12.14,7.39,16.23L7.58,43.3
	c-0.07,3.34,3.72,5.57,6.61,3.89l4.25-2.47c1.81,0.42,3.66,0.75,5.62,0.75c13.06,0,23.78-10.08,23.78-22.59S37.12,0.29,24.06,0.29z
	 M24.06,3.86c11.24,0,20.21,8.55,20.21,19.02S35.3,41.91,24.06,41.91c-1.92,0-3.77-0.27-5.55-0.74c-0.46-0.12-0.95-0.06-1.36,0.18
	l-4.76,2.76c-0.64,0.37-1.26,0-1.25-0.74l0.1-4.91c0.01-0.54-0.22-1.05-0.64-1.4c-4.16-3.5-6.77-8.54-6.77-14.17
	C3.85,12.41,12.82,3.86,24.06,3.86z M36.04,15.88c-0.3-0.05-0.63,0-0.9,0.19l-7.87,5.45l-4.11-3.61l-0.29-0.25l-0.16-0.13
	c-1.23-0.93-2.98-0.68-3.91,0.55l-7.46,9.89l-0.02,0.03c-0.3,0.4-0.33,0.97-0.03,1.41c0.38,0.54,1.13,0.68,1.67,0.3l7.87-5.45
	l4.11,3.61l0.29,0.25l0.16,0.13c1.23,0.93,2.98,0.68,3.91-0.55l7.46-9.89l0.02-0.03c0.3-0.4,0.33-0.97,0.03-1.41
	C36.62,16.1,36.34,15.93,36.04,15.88z"/>
</svg>
