<?xml version="1.0" encoding="utf-8"?>
<!-- Generator: Adobe Illustrator 23.1.0, SVG Export Plug-In . SVG Version: 6.00 Build 0)  -->
<svg version="1.1" id="Layer_1" xmlns="http://www.w3.org/2000/svg" xmlns:xlink="http://www.w3.org/1999/xlink" x="0px" y="0px"
	 viewBox="0 0 48 48" style="enable-background:new 0 0 48 48;" xml:space="preserve">
<style type="text/css">
	.st1{fill:#333333;}
</style>
<title>Skype</title>
<path class="st1" d="M15.22,0.31c-8.27,0-15.01,6.74-15.01,15.01c0,2.24,0.56,4.34,1.44,6.24c-0.1,0.81-0.19,1.64-0.19,2.51
	c0,12.42,10.1,22.52,22.52,22.52c0.88,0,1.7-0.09,2.51-0.19c1.91,0.88,4,1.44,6.24,1.44c8.27,0,15.01-6.74,15.01-15.01
	c0-2.24-0.56-4.34-1.44-6.24c0.1-0.81,0.19-1.64,0.19-2.51c0-12.42-10.1-22.52-22.52-22.52c-0.88,0-1.7,0.09-2.51,0.19
	C19.56,0.87,17.46,0.31,15.22,0.31z M15.22,4.06c1.85,0,3.59,0.45,5.14,1.25c0.34,0.18,0.73,0.24,1.11,0.19
	c0.86-0.11,1.69-0.19,2.51-0.19c10.39,0,18.77,8.38,18.77,18.77c0,0.83-0.08,1.66-0.19,2.51c-0.05,0.38,0.02,0.77,0.19,1.11
	c0.8,1.55,1.25,3.28,1.25,5.14c0,6.24-5.02,11.26-11.26,11.26c-1.85,0-3.59-0.45-5.14-1.25c-0.34-0.18-0.73-0.24-1.11-0.19
	c-0.86,0.11-1.69,0.19-2.51,0.19c-10.39,0-18.77-8.38-18.77-18.77c0-0.83,0.08-1.66,0.19-2.51c0.05-0.38-0.02-0.77-0.19-1.11
	c-0.8-1.55-1.25-3.28-1.25-5.14C3.96,9.08,8.98,4.06,15.22,4.06z M24.85,11.3c-9.38,0-9.74,5.95-9.74,7.25
	c0,7.46,12.66,7.12,12.66,11.61c0,2.74-2.96,2.86-4.28,2.86c-2.49,0-5.08-1.82-6.01-1.82c-0.93,0-2.29,0.74-2.29,2.03
	c0,3.18,5.63,3.86,7.03,3.86c1.36,0,10.74,0.41,10.74-7.27c0-7.8-12.6-7.81-12.6-11.58c0-0.38-0.11-3.01,4.28-3.01
	c3.18,0,3.8,1.41,5.36,1.41c0.8,0,2-0.45,2-2.21C31.99,12.02,27.37,11.3,24.85,11.3z"/>
</svg>
