<?xml version="1.0" encoding="utf-8"?>
<!-- Generator: Adobe Illustrator 23.1.0, SVG Export Plug-In . SVG Version: 6.00 Build 0)  -->
<svg version="1.1" id="Layer_1" xmlns="http://www.w3.org/2000/svg" xmlns:xlink="http://www.w3.org/1999/xlink" x="0px" y="0px"
	 viewBox="0 0 48 48" style="enable-background:new 0 0 48 48;" xml:space="preserve">
<style type="text/css">
	.st1{fill:#333333;}
</style>
<title>WhatsApp</title>

<path class="st1" d="M24,0.29c-13.11,0-23.78,10.67-23.78,23.78c0,3.89,1.03,7.53,2.69,10.78l-2.58,9.23
	c-0.6,2.14,1.52,4.26,3.66,3.66l9.24-2.58c3.24,1.66,6.88,2.68,10.77,2.68c13.11,0,23.78-10.67,23.78-23.78S37.11,0.29,24,0.29z
	 M24,3.86c11.18,0,20.21,9.03,20.21,20.21S35.18,44.29,24,44.29c-3.57,0-6.91-0.93-9.82-2.55c-0.41-0.23-0.89-0.29-1.35-0.16
	l-8.78,2.45l2.45-8.78c0.13-0.45,0.07-0.94-0.16-1.35c-1.63-2.91-2.56-6.25-2.56-9.83C3.79,12.89,12.82,3.86,24,3.86z M15.96,13.37
	c-0.38,0-0.99,0.14-1.51,0.71c-0.52,0.57-1.99,1.94-1.99,4.73s2.03,5.49,2.32,5.87c0.28,0.38,3.93,6.3,9.7,8.57
	c4.8,1.89,5.77,1.51,6.81,1.42c1.04-0.09,3.36-1.37,3.83-2.7c0.47-1.33,0.47-2.46,0.33-2.7c-0.14-0.24-0.52-0.38-1.09-0.66
	c-0.57-0.28-3.36-1.66-3.88-1.85c-0.52-0.19-0.9-0.29-1.28,0.28c-0.38,0.57-1.47,1.85-1.8,2.22c-0.33,0.38-0.66,0.43-1.23,0.14
	c-0.57-0.29-2.4-0.88-4.57-2.82c-1.69-1.5-2.82-3.36-3.16-3.93c-0.33-0.57-0.04-0.88,0.25-1.16c0.26-0.25,0.57-0.66,0.85-0.99
	c0.28-0.33,0.38-0.57,0.56-0.95c0.19-0.38,0.1-0.71-0.05-0.99s-1.25-3.09-1.75-4.22c-0.42-0.94-0.87-0.96-1.28-0.98
	C16.72,13.37,16.34,13.37,15.96,13.37z"/>
</svg>
